<?xml version="1.0" standalone="no"?> <!DOCTYPE svg PUBLIC "-//W3C//DTD SVG 1.0//EN" "http://www.w3.org/TR/2001/REC-SVG-20010904/DTD/svg10.dtd" > <svg xmlns="http://www.w3.org/2000/svg" width="100%" height="100%">
<defs >
<font id="simpleboldtitling" horiz-adv-x="1126" ><font-face
    font-family="Simple-BoldTitling"
    units-per-em="2048"
    panose-1="0 0 0 0 0 0 0 0 0 0"
    ascent="2019"
    descent="-457"
    alphabetic="0" />
<missing-glyph d="M68 0V1365H612V0H68ZM136 68H544V1297H136V68Z" />
<glyph unicode=" " glyph-name="space" />
<glyph unicode="!" glyph-name="exclam" d="M672 522Q672 494 653 476T606 457H520Q492 457 474 475T455 522V1456Q455 1482 473 1501T520 1520H606Q634 1520 653 1501T672 1456V522ZM737 66Q737 38 718 19T672 0H455Q428 0 409 19T389 66V283Q389 309 409 328T455
348H672Q698 348 717 329T737 283V66Z" />
<glyph unicode="&quot;" glyph-name="quotedbl" d="M977 1151Q977 1034 894 951T694 868Q667 868 648 887T629 934V1022Q629 1048 647 1066T694 1085Q720 1085 739 1105T758 1151V1174H694Q666 1174 648 1192T629 1239V1456Q629 1482 647 1501T694 1520H911Q937
1520 957 1501T977 1456V1151ZM498 1151Q498 1034 415 951T215 868Q189 868 170 888T150 934V1022Q150 1048 169 1066T215 1085Q242 1085 261 1104T281 1151V1174H215Q188 1174 169 1193T150 1239V1456Q150 1482 169 1501T215 1520H432Q460 1520 479 1501T498 1456V1151Z"
/>
<glyph unicode="#" glyph-name="numbersign" d="M1106 934Q1106 907 1087 888T1040 868H899L860 651H965Q991 651 1010 632T1030 586V500Q1030 474 1011 454T965 434H821L754 53Q751 32 732 16T690 0H602Q571 0 552 23T539 76L602 434H412L344 53Q341 32 322 16T281
0H193Q162 0 143 22T127 76L190 434H86Q59 434 40 453T20 500V586Q20 614 39 632T86 651H229L268 868H162Q136 868 116 888T96 934V1022Q96 1048 115 1066T162 1085H307L375 1466Q378 1489 397 1504T438 1520H526Q558 1520 577 1498T592 1444L528 1085H717L784
1466Q789 1489 807 1504T848 1520H936Q968 1520 987 1498T1001 1444L938 1085H1040Q1068 1085 1087 1067T1106 1022V934ZM678 868H489L451 651H639L678 868Z" />
<glyph unicode="$" glyph-name="dollar" d="M977 348Q977 213 890 110T672 -16V-109Q672 -135 653 -154T606 -174H520Q493 -174 474 -155T455 -109V-16Q325 7 238 110T150 348V391Q150 417 169 437T215 457H303Q329 457 349 437T369 391V348Q369 285 413 240T520
195H606Q669 195 713 240T758 348V414Q758 474 726 522T642 603T528 669T403 740T289 825T205 944T172 1108V1174Q172 1303 252 1402T455 1532V1630Q455 1656 473 1675T520 1694H606Q634 1694 653 1675T672 1630V1532Q795 1502 874 1403T954 1174V1130Q954 1103
935 1084T889 1065H803Q775 1065 756 1084T737 1130V1174Q737 1236 693 1280T586 1325H541Q478 1325 434 1281T389 1174V1108Q389 1053 421 1008T506 931T620 866T745 794T860 706T944 582T977 414V348Z" />
<glyph unicode="%" glyph-name="percent" d="M553 1098Q553 1021 499 967T369 913H324Q248 913 194 967T139 1098V1358Q139 1434 193 1488T324 1542H369Q444 1542 498 1488T553 1358V1098ZM899 1036Q911 1024 911 1006T899 975L348 424Q336 412 318 412T287 424L225
485Q213 498 213 516T225 547L776 1098Q789 1110 807 1110T838 1098L899 1036ZM987 164Q987 87 933 32T803 -23H758Q682 -23 628 32T573 164V424Q573 500 627 554T758 608H803Q878 608 932 554T987 424V164ZM399 1098V1358Q399 1371 390 1381T369 1391H324Q311
1391 301 1381T291 1358V1098Q291 1084 301 1075T324 1065H369Q381 1065 390 1074T399 1098ZM836 164V424Q836 437 826 447T803 457H758Q745 457 736 448T727 424V164Q727 150 736 141T758 131H803Q816 131 826 140T836 164Z" />
<glyph unicode="&amp;" glyph-name="ampersand" d="M1022 102Q1035 79 1029 53T1001 12L928 -33Q905 -48 879 -42T838 -12L807 37Q715 -23 606 -23H520Q366 -23 258 85T150 348V586Q150 775 279 872Q242 930 225 962T190 1047T172 1151V1174Q172 1326 280 1434T541
1542H586Q738 1542 846 1434T954 1174V977Q954 951 935 931T889 911H803Q776 911 757 930T737 977V1174Q737 1236 693 1280T586 1325H541Q478 1325 434 1281T389 1174V1151Q389 1108 410 1077L758 520V674Q758 700 777 719T823 739H911Q937 739 957 720T977 674V348Q977
281 950 213L1022 102ZM690 221L395 688Q369 652 369 586V348Q369 285 413 240T520 195H606Q651 195 690 221Z" />
<glyph unicode="&apos;" glyph-name="quotesingle" d="M737 1151Q737 1034 654 951T455 868Q429 868 409 888T389 934V1022Q389 1048 408 1066T455 1085T501 1104T520 1151V1174H455Q428 1174 409 1193T389 1239V1456Q389 1482 409 1501T455 1520H672Q698 1520
717 1501T737 1456V1151Z" />
<glyph unicode="(" glyph-name="parenleft" d="M803 -369Q803 -396 784 -415T737 -434H694Q541 -434 433 -326T324 -66V1151Q324 1305 432 1412T694 1520H737Q763 1520 783 1501T803 1456V1368Q803 1342 783 1323T737 1303H694Q631 1303 586 1259T541 1151V-66Q541
-129 586 -173T694 -217H737Q763 -217 783 -237T803 -283V-369Z" />
<glyph unicode=")" glyph-name="parenright" d="M803 -66Q803 -218 695 -326T432 -434H389Q362 -434 343 -415T324 -369V-283Q324 -257 343 -237T389 -217H432Q495 -217 540 -173T586 -66V1151Q586 1214 541 1258T432 1303H389Q363 1303 344 1322T324 1368V1456Q324
1482 343 1501T389 1520H432Q586 1520 694 1413T803 1151V-66Z" />
<glyph unicode="*" glyph-name="asterisk" d="M977 1065Q977 1037 957 1018T911 999L733 1010L831 860Q845 838 838 812T807 772L731 729Q708 715 682 722T643 752L563 911L483 752Q471 729 445 722T395 729L319 772Q296 787 289 812T295 860L393 1010L215 999Q189
998 170 1017T150 1065V1151Q150 1179 169 1198T215 1217L393 1206L295 1354Q281 1377 288 1403T319 1444L395 1487Q418 1501 444 1494T483 1462L563 1303L643 1462Q655 1486 681 1493T731 1487L807 1444Q830 1430 837 1404T831 1354L733 1206L911 1217Q937 1218
957 1199T977 1151V1065Z" />
<glyph unicode="+" glyph-name="plus" d="M911 522Q911 495 892 476T846 457H672V283Q672 256 653 237T606 217H520Q493 217 474 236T455 283V457H281Q254 457 235 476T215 522V608Q215 634 235 654T281 674H455V848Q455 874 473 892T520 911H606Q634 911 653
893T672 848V674H846Q872 674 891 654T911 608V522Z" />
<glyph unicode="," glyph-name="comma" d="M737 -23Q737 -139 654 -221T455 -303Q429 -303 409 -284T389 -240V-152Q389 -126 409 -106T455 -86Q482 -86 501 -68T520 -23V0H455Q428 0 409 19T389 66V283Q389 309 409 328T455 348H672Q698 348 717 329T737 283V-23Z" />
<glyph unicode="-" glyph-name="hyphen" d="M911 522Q911 495 892 476T846 457H281Q254 457 235 476T215 522V608Q215 634 235 654T281 674H846Q872 674 891 654T911 608V522Z" />
<glyph unicode="." glyph-name="period" d="M737 66Q737 38 718 19T672 0H455Q428 0 409 19T389 66V283Q389 309 409 328T455 348H672Q698 348 717 329T737 283V66Z" />
<glyph unicode="/" glyph-name="slash" d="M952 1432L387 41Q381 24 364 12T328 0H233Q197 0 179 28T174 90L739 1481Q746 1497 763 1508T799 1520H893Q930 1520 948 1493T952 1432Z" />
<glyph unicode="0" glyph-name="zero" d="M954 348Q954 194 846 86T586 -23H541Q389 -23 281 85T172 348V1174Q172 1326 280 1434T541 1542H586Q738 1542 846 1434T954 1174V348ZM737 348V1174Q737 1236 693 1280T586 1325H541Q478 1325 434 1281T389 1174V348Q389
285 433 240T541 195H586Q649 195 693 240T737 348Z" />
<glyph unicode="1" glyph-name="one" d="M1020 66Q1020 39 1001 20T954 0H215Q188 0 169 19T150 66V152Q150 179 169 198T215 217H498V1169L383 1036Q366 1016 340 1014T293 1030L227 1087Q206 1104 204 1131T219 1178L494 1497Q501 1506 516 1513T543 1520H649Q677
1520 696 1501T715 1456V217H954Q981 217 1000 198T1020 152V66Z" />
<glyph unicode="2" glyph-name="two" d="M977 66Q977 39 958 20T911 0H215Q188 0 169 19T150 66V152Q150 378 226 530T500 827Q737 999 737 1108V1174Q737 1236 693 1280T586 1325H541Q478 1325 434 1281T389 1174V1108Q389 1081 370 1062T324 1042H238Q212 1042
192 1062T172 1108V1174Q172 1326 280 1434T541 1542H586Q738 1542 846 1434T954 1174V1108Q954 998 880 890T627 651Q487 548 432 454T369 217H911Q938 217 957 198T977 152V66Z" />
<glyph unicode="3" glyph-name="three" d="M977 348Q977 194 869 86T606 -23H520Q366 -23 258 85T150 348V414Q150 440 169 458T215 477H303Q330 477 349 459T369 414V348Q369 285 413 240T520 195H606Q669 195 713 240T758 348V631Q758 694 714 738T606 782H455Q428
782 409 801T389 848V950Q389 968 403 991L659 1303H281Q255 1303 235 1322T215 1368V1456Q215 1482 235 1501T281 1520H889Q915 1520 934 1501T954 1456V1354Q954 1332 940 1313L682 991Q809 965 893 864T977 631V348Z" />
<glyph unicode="4" glyph-name="four" d="M997 326Q997 299 978 280T932 260H866V66Q866 38 848 19T803 0H715Q688 0 669 19T649 66V260H195Q168 260 149 279T129 326V467Q129 475 135 496L631 1485Q637 1498 655 1509T688 1520H786Q825 1520 843 1491T844 1425L369
477H649V760Q649 787 668 806T715 825H803Q829 825 847 807T866 760V477H932Q960 477 978 459T997 414V326Z" />
<glyph unicode="5" glyph-name="five" d="M954 348Q954 194 846 86T586 -23H541Q389 -23 281 85T172 348V414Q172 440 191 458T238 477H324Q351 477 370 459T389 414V348Q389 285 433 240T541 195H586Q649 195 693 240T737 348V674Q737 737 693 781T586 825H541Q498
825 469 807T425 764T398 713T369 669T326 651H246Q218 651 199 671T180 721L217 1458Q218 1484 238 1502T283 1520H866Q894 1520 913 1501T932 1456V1368Q932 1342 913 1323T866 1303H428L414 1020Q475 1042 541 1042H586Q738 1042 846 934T954 674V348Z" />
<glyph unicode="6" glyph-name="six" d="M954 348Q954 194 846 86T586 -23H541Q389 -23 281 85T172 348V1174Q172 1326 280 1434T541 1542H586Q738 1542 846 1434T954 1174Q954 1146 935 1127T889 1108H803Q775 1108 756 1127T737 1174Q737 1236 693 1280T586
1325H541Q478 1325 434 1281T389 1174V1010Q464 1042 541 1042H586Q738 1042 846 934T954 674V348ZM737 348V674Q737 737 693 781T586 825H541Q478 825 434 781T389 674V348Q389 285 433 240T541 195H586Q649 195 693 240T737 348Z" />
<glyph unicode="7" glyph-name="seven" d="M997 1348Q997 1294 986 1239T962 1145T920 1047T874 961T817 869T764 782Q718 707 684 642T613 486T548 288T504 57Q501 33 482 17T438 0H350Q321 0 302 22T287 74Q320 336 395 526T580 895Q593 917 637 987T702 1094T747
1191T778 1303H238Q212 1303 192 1322T172 1368V1456Q172 1482 192 1501T238 1520H932Q960 1520 978 1501T997 1456V1348Z" />
<glyph unicode="8" glyph-name="eight" d="M977 348Q977 194 869 86T606 -23H520Q366 -23 258 85T150 348V500Q150 578 182 649T270 772Q172 878 172 1022V1174Q172 1326 280 1434T541 1542H586Q738 1542 846 1434T954 1174V1022Q954 876 856 772Q912 721 944
650T977 500V348ZM737 1022V1174Q737 1236 693 1280T586 1325H541Q478 1325 434 1281T389 1174V1022Q389 959 433 914T541 868H586Q649 868 693 913T737 1022ZM758 348V500Q758 563 714 607T606 651H520Q457 651 413 607T369 500V348Q369 285 413 240T520 195H606Q669
195 713 240T758 348Z" />
<glyph unicode="9" glyph-name="nine" d="M954 348Q954 194 846 86T586 -23H563Q410 -23 303 85T195 348Q195 375 214 394T260 414H346Q372 414 392 394T412 348Q412 285 456 240T563 195H586Q649 195 693 240T737 348V510Q663 477 586 477H541Q389 477 281 585T172
848V1174Q172 1326 280 1434T541 1542H586Q738 1542 846 1434T954 1174V348ZM737 848V1174Q737 1236 693 1280T586 1325H541Q478 1325 434 1281T389 1174V848Q389 785 433 740T541 694H586Q649 694 693 739T737 848Z" />
<glyph unicode=":" glyph-name="colon" d="M737 760Q737 734 718 714T672 694H455Q429 694 409 714T389 760V977Q389 1004 408 1023T455 1042H672Q699 1042 718 1023T737 977V760ZM737 66Q737 38 718 19T672 0H455Q428 0 409 19T389 66V283Q389 309 409 328T455
348H672Q698 348 717 329T737 283V66Z" />
<glyph unicode=";" glyph-name="semicolon" d="M737 760Q737 734 718 714T672 694H455Q429 694 409 714T389 760V977Q389 1004 408 1023T455 1042H672Q699 1042 718 1023T737 977V760ZM737 -23Q737 -139 654 -221T455 -303Q429 -303 409 -284T389 -240V-152Q389
-126 409 -106T455 -86Q482 -86 501 -68T520 -23V0H455Q428 0 409 19T389 66V283Q389 309 409 328T455 348H672Q698 348 717 329T737 283V-23Z" />
<glyph unicode="&lt;" glyph-name="less" d="M883 201Q920 169 905 128T840 86H707Q684 86 664 102L260 453Q238 471 238 502V584Q238 596 244 612T260 635L664 983Q684 999 707 999H840Q889 999 904 958T883 885L489 543L883 201Z" />
<glyph unicode="=" glyph-name="equal" d="M911 694Q911 668 892 650T846 631H281Q254 631 235 649T215 694V782Q215 808 235 828T281 848H846Q872 848 891 828T911 782V694ZM911 348Q911 321 892 302T846 283H281Q254 283 235 302T215 348V434Q215 460 235 480T281
500H846Q872 500 891 480T911 434V348Z" />
<glyph unicode="&gt;" glyph-name="greater" d="M889 502Q889 471 866 453L463 102Q443 86 420 86H287Q238 86 223 127T244 201L637 543L244 885Q207 917 222 958T287 999H420Q443 999 463 983L866 635Q875 628 882 612T889 584V502Z" />
<glyph unicode="?" glyph-name="question" d="M954 1130Q954 1023 903 922T715 717Q655 673 642 637T629 520Q629 494 609 475T563 455H477Q450 455 431 474T412 520Q412 577 416 614T436 702T489 799T586 891Q637 929 670 965T716 1032T733 1084T737 1130V1174Q737
1236 693 1280T586 1325H541Q478 1325 434 1281T389 1174V1108Q389 1081 370 1062T324 1042H238Q212 1042 192 1062T172 1108V1174Q172 1326 280 1434T541 1542H586Q738 1542 846 1434T954 1174V1130ZM694 66Q694 38 675 19T629 0H412Q384 0 365 19T346 66V283Q346
309 365 328T412 348H629Q655 348 674 329T694 283V66Z" />
<glyph unicode="@" glyph-name="at" d="M1040 260Q1040 143 958 60T758 -23Q657 -23 578 43Q494 -23 389 -23Q263 -23 175 67T86 283V739Q86 865 174 953T389 1042Q453 1042 516 1016Q528 1022 541 1022H629Q655 1022 674 1002T694 956V260Q694 234 713 215T758
195Q785 195 804 214T823 260V1174Q823 1236 779 1280T672 1325H520Q457 1325 413 1281T369 1174Q369 1147 350 1128T303 1108H215Q188 1108 169 1127T150 1174Q150 1326 258 1434T520 1542H672Q825 1542 932 1434T1040 1174V260ZM477 283V739Q477 774 452 799T389
825Q354 825 329 800T303 739V283Q303 246 328 221T389 195Q426 195 451 220T477 283Z" />
<glyph unicode="A" glyph-name="A" d="M997 66Q997 38 979 19T932 0H846Q819 0 800 19T780 66V477H346V66Q346 39 327 20T281 0H195Q167 0 148 19T129 66V594L131 606L358 1473Q363 1493 381 1506T422 1520H705Q726 1520 745 1506T768 1473L995 606L997 594V66ZM748
694L588 1303H539L379 694H748Z" />
<glyph unicode="B" glyph-name="B" d="M993 369Q993 217 885 109T625 0H254Q228 0 209 19T190 66V1456Q190 1482 209 1501T254 1520H602Q756 1520 863 1413T971 1151V1022Q971 879 874 772Q930 721 961 650T993 500V369ZM754 1022V1151Q754 1214 710 1258T602
1303H408V868H602Q665 868 709 913T754 1022ZM776 369V500Q776 563 732 607T625 651H408V217H625Q688 217 732 261T776 369Z" />
<glyph unicode="C" glyph-name="C" d="M977 348Q977 194 869 86T606 -23H541Q389 -23 281 85T172 348V1174Q172 1326 280 1434T541 1542H606Q760 1542 868 1434T977 1174V1130Q977 1103 958 1084T911 1065H823Q797 1065 778 1084T758 1130V1174Q758 1236 714 1280T606
1325H541Q478 1325 434 1281T389 1174V348Q389 285 433 240T541 195H606Q669 195 713 240T758 348V414Q758 440 777 458T823 477H911Q938 477 957 459T977 414V348Z" />
<glyph unicode="D" glyph-name="D" d="M971 369Q971 216 863 108T602 0H254Q228 0 209 19T190 66V1456Q190 1482 209 1501T254 1520H602Q756 1520 863 1413T971 1151V369ZM754 369V1151Q754 1214 710 1258T602 1303H408V217H602Q665 217 709 261T754 369Z" />
<glyph unicode="E" glyph-name="E" d="M977 66Q977 39 958 20T911 0H258Q232 0 214 19T195 66V1456Q195 1482 213 1501T258 1520H911Q937 1520 957 1501T977 1456V1368Q977 1342 957 1323T911 1303H412V868H866Q894 868 913 850T932 803V717Q932 690 913 671T866
651H412V217H911Q938 217 957 198T977 152V66Z" />
<glyph unicode="F" glyph-name="F" d="M997 1368Q997 1341 978 1322T932 1303H432V868H889Q916 868 935 849T954 803V717Q954 691 935 671T889 651H432V66Q432 38 414 19T369 0H281Q254 0 235 19T215 66V1456Q215 1482 235 1501T281 1520H932Q960 1520 978 1501T997
1456V1368Z" />
<glyph unicode="G" glyph-name="G" d="M965 348Q965 194 857 86T596 -23H530Q378 -23 270 85T162 348V1171Q162 1325 270 1433T530 1542H596Q748 1542 856 1434T965 1171V1128Q965 1102 946 1083T899 1063H813Q787 1063 768 1082T748 1128V1171Q748 1234 704 1279T596
1325H530Q467 1325 423 1280T379 1171V348Q379 285 423 240T530 195H596Q659 195 703 240T748 348V651H573Q547 651 528 671T508 717V803Q508 830 527 849T573 868H899Q927 868 946 850T965 803V348Z" />
<glyph unicode="H" glyph-name="H" d="M954 66Q954 38 935 19T889 0H803Q775 0 756 19T737 66V651H389V66Q389 38 370 19T324 0H238Q211 0 192 19T172 66V1456Q172 1482 192 1501T238 1520H324Q351 1520 370 1501T389 1456V868H737V1456Q737 1482 756 1501T803
1520H889Q915 1520 934 1501T954 1456V66Z" />
<glyph unicode="I" glyph-name="I" d="M977 66Q977 39 958 20T911 0H215Q188 0 169 19T150 66V152Q150 179 169 198T215 217H455V1303H238Q212 1303 192 1322T172 1368V1456Q172 1482 192 1501T238 1520H889Q915 1520 934 1501T954 1456V1368Q954 1342 935 1323T889
1303H672V217H911Q938 217 957 198T977 152V66Z" />
<glyph unicode="J" glyph-name="J" d="M932 348Q932 194 825 86T563 -23H520Q366 -23 258 85T150 348V477Q150 504 169 523T215 543H303Q330 543 349 524T369 477V348Q369 285 413 240T520 195H563Q626 195 670 240T715 348V1303H303Q276 1303 257 1322T238 1368V1456Q238
1482 257 1501T303 1520H866Q894 1520 913 1501T932 1456V348Z" />
<glyph unicode="K" glyph-name="K" d="M1053 102Q1077 67 1059 34T999 0H893Q878 0 863 8T840 29L432 612L389 551V66Q389 38 370 19T324 0H238Q211 0 192 19T172 66V1456Q172 1482 192 1501T238 1520H324Q351 1520 370 1501T389 1456V926L795 1493Q803 1504 818
1512T848 1520H954Q997 1520 1014 1486T1008 1417L567 801L1053 102Z" />
<glyph unicode="L" glyph-name="L" d="M997 66Q997 38 979 19T932 0H324Q298 0 279 19T260 66V1456Q260 1482 279 1501T324 1520H412Q438 1520 457 1501T477 1456V217H932Q960 217 978 198T997 152V66Z" />
<glyph unicode="M" glyph-name="M" d="M1067 66Q1067 38 1048 19T1001 0H915Q888 0 869 19T850 66V1151L680 651Q674 633 656 621T618 608H508Q489 608 471 620T446 651L276 1151V66Q276 38 258 19T211 0H125Q97 0 78 19T59 66V1456Q59 1482 78 1501T125 1520H307Q326
1520 344 1508T367 1479L563 920L760 1479Q764 1495 782 1507T819 1520H1001Q1029 1520 1048 1501T1067 1456V66Z" />
<glyph unicode="N" glyph-name="N" d="M1020 66Q1020 39 1001 20T954 0H772Q753 0 735 12T711 43L324 1122V66Q324 38 305 19T260 0H172Q145 0 126 19T106 66V1456Q106 1482 126 1501T172 1520H354Q373 1520 391 1508T416 1479L803 397V1454Q803 1482 821 1501T866
1520H954Q981 1520 1000 1501T1020 1454V66Z" />
<glyph unicode="O" glyph-name="O" d="M965 348Q965 194 857 86T596 -23H530Q378 -23 270 85T162 348V1174Q162 1326 270 1434T530 1542H596Q748 1542 856 1434T965 1174V348ZM748 348V1174Q748 1236 704 1280T596 1325H530Q467 1325 423 1281T379 1174V348Q379
285 423 240T530 195H596Q659 195 703 240T748 348Z" />
<glyph unicode="P" glyph-name="P" d="M971 848Q971 694 864 586T602 477H408V66Q408 39 389 20T342 0H254Q228 0 209 19T190 66V1456Q190 1482 209 1501T254 1520H602Q756 1520 863 1413T971 1151V848ZM754 848V1151Q754 1214 710 1258T602 1303H408V694H602Q665
694 709 739T754 848Z" />
<glyph unicode="Q" glyph-name="Q" d="M989 16L928 -45Q909 -65 882 -65T836 -45L768 20Q684 -23 596 -23H530Q378 -23 270 85T162 348V1174Q162 1326 270 1434T530 1542H596Q748 1542 856 1434T965 1174V348Q965 255 922 174L989 109Q1008 89 1008 62T989 16ZM748
348V1174Q748 1236 704 1280T596 1325H530Q467 1325 423 1281T379 1174V348Q379 285 423 240T530 195H594L485 305Q467 324 467 351T485 397L547 459Q565 477 592 477T639 459L748 348Z" />
<glyph unicode="R" glyph-name="R" d="M973 90Q988 56 969 28T913 0H819Q802 0 784 12T760 39L573 477H408V66Q408 39 389 20T342 0H254Q228 0 209 19T190 66V1456Q190 1482 209 1501T254 1520H602Q756 1520 863 1413T971 1151V848Q971 747 921 662T788 528L973
90ZM754 848V1151Q754 1214 710 1258T602 1303H408V694H602Q665 694 709 739T754 848Z" />
<glyph unicode="S" glyph-name="S" d="M977 348Q977 194 869 86T606 -23H520Q366 -23 258 85T150 348V391Q150 417 169 437T215 457H303Q329 457 349 437T369 391V348Q369 285 413 240T520 195H606Q669 195 713 240T758 348V414Q758 474 726 522T642 603T528 669T403
740T289 825T205 944T172 1108V1174Q172 1326 280 1434T541 1542H586Q738 1542 846 1434T954 1174V1130Q954 1103 935 1084T889 1065H803Q775 1065 756 1084T737 1130V1174Q737 1236 693 1280T586 1325H541Q478 1325 434 1281T389 1174V1108Q389 1053 421 1008T506
931T620 866T745 794T860 706T944 582T977 414V348Z" />
<glyph unicode="T" glyph-name="T" d="M997 1368Q997 1341 978 1322T932 1303H672V66Q672 38 653 19T606 0H520Q492 0 474 19T455 66V1303H195Q168 1303 149 1322T129 1368V1456Q129 1482 148 1501T195 1520H932Q960 1520 978 1501T997 1456V1368Z" />
<glyph unicode="U" glyph-name="U" d="M954 348Q954 194 846 86T586 -23H541Q389 -23 281 85T172 348V1456Q172 1482 192 1501T238 1520H324Q351 1520 370 1501T389 1456V348Q389 285 433 240T541 195H586Q649 195 693 240T737 348V1456Q737 1482 756 1501T803
1520H889Q915 1520 934 1501T954 1456V348Z" />
<glyph unicode="V" glyph-name="V" d="M1008 1442L705 51Q700 30 682 15T641 0H483Q462 0 443 15T420 51L119 1442Q112 1473 131 1496T182 1520H270Q292 1520 311 1505T334 1468L563 418L793 1468Q797 1490 815 1505T856 1520H944Q976 1520 995 1497T1008 1442Z" />
<glyph unicode="W" glyph-name="W" d="M1094 1454L1073 795L983 57Q980 35 961 18T918 0H745Q725 0 706 15T684 49L563 608L442 49Q439 30 420 15T381 0H209Q186 0 166 17T143 57L53 795L33 1454Q33 1481 52 1500T98 1520H184Q211 1520 230 1502T250 1458L268
813L317 348L422 862Q426 883 445 897T485 911H641Q662 911 681 897T705 862L809 348L858 813L877 1458Q877 1484 896 1502T942 1520H1028Q1055 1520 1074 1501T1094 1454Z" />
<glyph unicode="X" glyph-name="X" d="M997 92Q1013 58 995 29T938 0H844Q827 0 809 11T784 39L563 522L342 39Q336 24 318 12T283 0H188Q150 0 132 29T129 92L444 784L150 1427Q134 1463 153 1491T209 1520H305Q322 1520 339 1509T365 1483L563 1047L762 1483Q770
1498 787 1509T821 1520H918Q955 1520 973 1492T977 1427L682 784L997 92Z" />
<glyph unicode="Y" glyph-name="Y" d="M973 1432L672 664V66Q672 38 653 19T606 0H520Q492 0 474 19T455 66V664L154 1432Q140 1466 159 1493T215 1520H307Q326 1520 344 1508T369 1479L563 938L758 1479Q764 1495 782 1507T819 1520H911Q948 1520 967 1493T973 1432Z" />
<glyph unicode="Z" glyph-name="Z" d="M997 66Q997 38 979 19T932 0H238Q211 0 192 19T172 66V141Q172 178 190 213L696 1303H260Q233 1303 214 1322T195 1368V1456Q195 1482 213 1501T260 1520H889Q915 1520 934 1501T954 1456V1368Q954 1337 938 1307L430 217H932Q960
217 978 198T997 152V66Z" />
<glyph unicode="[" glyph-name="bracketleft" d="M803 -369Q803 -396 784 -415T737 -434H389Q362 -434 343 -415T324 -369V1456Q324 1482 343 1501T389 1520H737Q763 1520 783 1501T803 1456V1368Q803 1342 783 1323T737 1303H541V-217H737Q763 -217 783 -237T803
-283V-369Z" />
<glyph unicode="\" glyph-name="backslash" d="M952 90Q966 56 948 28T893 0H799Q780 0 763 12T739 41L174 1432Q160 1466 178 1493T233 1520H328Q346 1520 363 1508T387 1481L952 90Z" />
<glyph unicode="]" glyph-name="bracketright" d="M803 -369Q803 -396 784 -415T737 -434H389Q362 -434 343 -415T324 -369V-283Q324 -257 343 -237T389 -217H586V1303H389Q363 1303 344 1322T324 1368V1456Q324 1482 343 1501T389 1520H737Q763 1520 783 1501T803
1456V-369Z" />
<glyph unicode="^" glyph-name="asciicircum" d="M979 739Q992 705 974 678T920 651H825Q807 651 790 664T766 694L563 1221L360 694Q354 677 337 664T301 651H207Q171 651 153 678T147 739L428 1479Q436 1496 453 1508T489 1520H637Q655 1520 672 1508T698 1479L979
739Z" />
<glyph unicode="_" glyph-name="underscore" d="M954 66Q954 38 935 19T889 0H238Q211 0 192 19T172 66V152Q172 179 191 198T238 217H889Q915 217 934 198T954 152V66Z" />
<glyph unicode="`" glyph-name="grave" d="M680 1278Q708 1244 691 1209T629 1174H541Q514 1174 496 1192L279 1409Q245 1443 261 1481T324 1520H455Q467 1520 483 1513T506 1497L680 1278Z" />
<glyph unicode="a" glyph-name="a" d="M1040 66Q1040 38 1022 19T977 0H932Q850 0 791 59Q672 -23 541 -23H498Q360 -23 266 64T172 283V326Q172 388 192 438T240 520T315 579T397 619T485 649Q489 650 524 657T591 673T658 695T715 728T737 770Q737 826 697 858T586
891H563Q500 891 456 847T412 739Q412 712 393 693T346 674H260Q232 674 214 692T195 739Q195 892 302 1000T563 1108H586Q736 1108 845 1012T954 760V240Q954 230 961 224T977 217Q1003 217 1021 198T1040 152V66ZM737 348V535Q683 507 599 485T483 449Q438 430
414 396T389 326V293Q389 257 417 226T498 195H541Q623 195 680 238T737 348Z" />
<glyph unicode="b" glyph-name="b" d="M971 348Q971 194 864 86T602 -23H559Q473 -23 389 20Q369 0 342 0H254Q228 0 209 19T190 66V1456Q190 1482 209 1501T254 1520H342Q368 1520 388 1501T408 1456V1075Q479 1108 559 1108H602Q755 1108 863 1000T971 739V348ZM754
348V739Q754 802 710 846T602 891H559Q496 891 452 847T408 739V348Q408 285 452 240T559 195H602Q665 195 709 240T754 348Z" />
<glyph unicode="c" glyph-name="c" d="M954 348Q954 194 846 86T586 -23H541Q389 -23 281 85T172 348V739Q172 891 280 999T541 1108H586Q738 1108 846 1000T954 739Q954 712 935 693T889 674H803Q775 674 756 692T737 739Q737 802 693 846T586 891H541Q478 891
434 847T389 739V348Q389 285 433 240T541 195H586Q649 195 693 240T737 348Q737 375 756 394T803 414H889Q915 414 934 394T954 348Z" />
<glyph unicode="d" glyph-name="d" d="M936 66Q936 38 917 19T872 0H784Q759 0 737 20Q653 -23 567 -23H524Q371 -23 264 85T156 348V739Q156 892 263 1000T524 1108H567Q648 1108 719 1075V1456Q719 1482 738 1501T784 1520H872Q898 1520 917 1501T936 1456V66ZM719
348V739Q719 802 675 846T567 891H524Q461 891 417 847T373 739V348Q373 285 417 240T524 195H567Q630 195 674 240T719 348Z" />
<glyph unicode="e" glyph-name="e" d="M954 500Q954 474 935 454T889 434H389V348Q389 285 433 240T541 195H586Q623 195 653 210T698 247T722 284T731 307Q737 333 761 346T811 352L895 332Q921 325 934 301T942 252Q909 132 811 55T586 -23H541Q389 -23 281
85T172 348V739Q172 891 280 999T541 1108H586Q738 1108 846 1000T954 739V500ZM737 651V739Q737 802 693 846T586 891H541Q478 891 434 847T389 739V651H737Z" />
<glyph unicode="f" glyph-name="f" d="M1106 1085Q1106 1059 1087 1041T1040 1022H954Q928 1022 909 1041T889 1085V1174Q889 1244 852 1284T758 1325H672Q616 1325 579 1285T541 1174V1042H737Q764 1042 783 1023T803 977V891Q803 865 783 845T737 825H541V217H866Q894
217 913 198T932 152V66Q932 38 913 19T866 0H195Q167 0 148 19T129 66V152Q129 179 148 198T195 217H324V825H215Q189 825 170 845T150 891V977Q150 1004 169 1023T215 1042H324V1174Q324 1324 420 1433T672 1542H758Q914 1542 1010 1433T1106 1174V1085Z" />
<glyph unicode="g" glyph-name="g" d="M936 -86Q936 -240 829 -347T567 -455H524Q371 -455 264 -348Q244 -328 244 -302T264 -256L326 -195Q344 -175 371 -175T418 -195Q461 -238 524 -238H567Q630 -238 674 -194T719 -86V12Q647 -20 567 -20H524Q371 -20 264
87T156 348V739Q156 893 263 1000T524 1108H567Q662 1108 739 1067Q756 1085 784 1085H872Q898 1085 917 1067T936 1022V-86ZM719 348V739Q719 802 675 846T567 891H524Q461 891 417 847T373 739V348Q373 285 417 241T524 197H567Q630 197 674 241T719 348Z" />
<glyph unicode="h" glyph-name="h" d="M963 66Q963 38 944 19T897 0H811Q784 0 765 19T745 66V739Q745 802 701 846T594 891H551Q488 891 443 847T397 739V66Q397 38 379 19T334 0H246Q219 0 200 19T180 66V1456Q180 1482 200 1501T246 1520H334Q360 1520 378
1501T397 1456V1075Q471 1108 551 1108H594Q746 1108 854 1000T963 739V66Z" />
<glyph unicode="i" glyph-name="i" d="M758 1282Q758 1254 739 1236T694 1217H520Q492 1217 474 1235T455 1282V1456Q455 1482 473 1501T520 1520H694Q720 1520 739 1501T758 1456V1282ZM1040 66Q1040 38 1022 19T977 0H195Q167 0 148 19T129 66V152Q129 179 148
198T195 217H520V868H281Q255 868 235 888T215 934V1022Q215 1048 234 1066T281 1085H672Q698 1085 717 1067T737 1022V217H977Q1003 217 1021 198T1040 152V66Z" />
<glyph unicode="j" glyph-name="j" d="M866 1282Q866 1254 848 1236T803 1217H629Q601 1217 582 1235T563 1282V1456Q563 1482 582 1501T629 1520H803Q829 1520 847 1501T866 1456V1282ZM846 -86Q846 -240 738 -348T477 -457Q323 -457 215 -349T106 -86V43Q106
70 125 89T172 109H260Q286 109 305 90T324 43V-86Q324 -149 369 -194T477 -240T584 -195T629 -86V868H303Q276 868 257 887T238 934V1022Q238 1048 256 1066T303 1085H780Q807 1085 826 1067T846 1022V-86Z" />
<glyph unicode="k" glyph-name="k" d="M1014 106Q1042 71 1025 36T963 0H850Q838 0 824 7T801 25L446 467L389 412V66Q389 38 370 19T324 0H238Q211 0 192 19T172 66V1456Q172 1482 192 1501T238 1520H324Q351 1520 370 1501T389 1456V719L737 1067Q757 1085 784
1085H907Q955 1085 970 1047T952 975L600 623L1014 106Z" />
<glyph unicode="l" glyph-name="l" d="M1040 66Q1040 38 1022 19T977 0H172Q145 0 126 19T106 66V152Q106 179 125 198T172 217H498V1303H260Q233 1303 214 1322T195 1368V1456Q195 1482 213 1501T260 1520H649Q677 1520 696 1501T715 1456V217H977Q1003 217 1021
198T1040 152V66Z" />
<glyph unicode="m" glyph-name="m" d="M1040 66Q1040 38 1022 19T977 0H889Q862 0 843 19T823 66V825Q823 852 804 871T758 891H737Q709 891 691 872T672 825V63Q672 37 653 19T606 0H520Q493 0 474 18T455 63V825Q455 853 436 872T389 891H369Q341 891 322 872T303
825V66Q303 39 284 20T238 0H150Q124 0 105 19T86 66V1022Q86 1048 105 1066T150 1085H238Q248 1085 254 1083Q305 1108 369 1108H389Q486 1108 563 1049Q640 1108 737 1108H758Q875 1108 957 1026T1040 825V66Z" />
<glyph unicode="n" glyph-name="n" d="M963 66Q963 38 944 19T897 0H811Q784 0 765 19T745 66V739Q745 802 701 846T594 891H551Q488 891 443 847T397 739V66Q397 38 379 19T334 0H246Q219 0 200 19T180 66V1022Q180 1048 199 1066T246 1085H334Q364 1085 379
1067Q456 1108 551 1108H594Q746 1108 854 1000T963 739V66Z" />
<glyph unicode="o" glyph-name="o" d="M954 348Q954 194 846 86T586 -23H541Q389 -23 281 85T172 348V739Q172 891 280 999T541 1108H586Q738 1108 846 1000T954 739V348ZM737 348V739Q737 802 693 846T586 891H541Q478 891 434 847T389 739V348Q389 285 433 240T541
195H586Q649 195 693 240T737 348Z" />
<glyph unicode="p" glyph-name="p" d="M971 348Q971 194 864 86T602 -23H559Q482 -23 408 10V-369Q408 -396 389 -415T342 -434H254Q228 -434 209 -415T190 -369V1022Q190 1048 209 1066T254 1085H342Q371 1085 389 1067Q466 1108 559 1108H602Q755 1108 863 1000T971
739V348ZM754 348V739Q754 802 710 846T602 891H559Q496 891 452 847T408 739V348Q408 285 452 240T559 195H602Q665 195 709 240T754 348Z" />
<glyph unicode="q" glyph-name="q" d="M936 -369Q936 -396 917 -415T872 -434H784Q758 -434 739 -415T719 -369V10Q645 -23 567 -23H524Q371 -23 264 85T156 348V739Q156 892 263 1000T524 1108H567Q660 1108 737 1067Q756 1085 784 1085H872Q898 1085 917 1067T936
1022V-369ZM719 348V739Q719 802 675 846T567 891H524Q461 891 417 847T373 739V348Q373 285 417 240T524 195H567Q630 195 674 240T719 348Z" />
<glyph unicode="r" glyph-name="r" d="M997 586Q997 560 979 541T932 522H846Q820 522 800 541T780 586V739Q780 803 735 847T629 891H586Q524 891 478 847T432 739V217H758Q786 217 804 198T823 152V66Q823 38 805 19T758 0H106Q80 0 61 19T41 66V152Q41 179
60 198T106 217H215V739Q215 888 322 998T586 1108H629Q733 1108 818 1057T950 921T997 739V586Z" />
<glyph unicode="s" glyph-name="s" d="M977 326Q977 170 867 74T606 -23H541Q444 -23 361 18T225 140T172 326V348Q172 374 192 394T238 414H324Q351 414 370 395T389 348V326Q389 270 430 233T541 195H606Q676 195 717 232T758 326Q758 353 734 374T670 408T580
436T477 465T374 505T283 563T219 648T195 768Q195 873 248 952T384 1069T563 1108H586Q736 1108 845 1012T954 760Q954 734 935 714T889 694H803Q776 694 757 713T737 760Q737 817 697 854T586 891H563Q490 891 451 857T412 768Q412 741 436 720T500 687T591 659T694
629T798 589T888 531T952 446T977 326Z" />
<glyph unicode="t" glyph-name="t" d="M997 348Q997 194 889 86T629 -23Q475 -23 368 85T260 348V825H150Q124 825 105 845T86 891V977Q86 1004 105 1023T150 1042H260V1456Q260 1482 279 1501T324 1520H412Q438 1520 457 1501T477 1456V1042H846Q873 1042 892
1023T911 977V891Q911 865 892 845T846 825H477V348Q477 285 521 240T629 195T736 240T780 348V391Q780 417 800 437T846 457H932Q959 457 978 438T997 391V348Z" />
<glyph unicode="u" glyph-name="u" d="M946 66Q946 39 927 20T881 0H793Q765 0 748 20Q662 -23 575 -23H532Q380 -23 272 85T164 348V1022Q164 1048 183 1066T229 1085H315Q342 1085 361 1067T381 1022V348Q381 285 425 240T532 195H575Q638 195 683 240T729 348V1022Q729
1048 748 1066T793 1085H881Q907 1085 926 1067T946 1022V66Z" />
<glyph unicode="v" glyph-name="v" d="M1034 999L698 43Q692 25 675 13T637 0H489Q470 0 452 13T428 43L92 999Q81 1033 99 1059T154 1085H268Q287 1085 305 1073T330 1042L563 315L819 1042Q825 1060 843 1072T881 1085H973Q1008 1085 1026 1059T1034 999Z" />
<glyph unicode="w" glyph-name="w" d="M1077 571L983 53Q978 32 959 16T918 0H723Q703 0 684 15T662 49L563 520L465 49Q462 30 443 15T403 0H209Q186 0 167 15T143 53L49 571V1020Q49 1047 68 1067T115 1087H201Q227 1087 246 1068T266 1022V598L309 240L422
760Q427 788 444 806T487 825H639Q665 825 682 807T705 760L817 240L860 598V1022Q860 1048 880 1067T926 1087H1012Q1039 1087 1058 1067T1077 1020Q1079 580 1077 571Z" />
<glyph unicode="x" glyph-name="x" d="M993 100Q1016 66 999 33T940 0H836Q822 0 805 9T780 29L563 360L346 29Q339 18 322 9T291 0H186Q145 0 128 33T133 100L434 559L154 985Q131 1020 148 1052T207 1085H311Q326 1085 342 1077T365 1057L563 756L762 1057Q768
1068 784 1076T815 1085H920Q961 1085 978 1053T973 985L692 559L993 100Z" />
<glyph unicode="y" glyph-name="y" d="M954 1004Q707 109 645 -96Q628 -153 603 -196T545 -266T478 -310T401 -335T322 -345T238 -348H195Q168 -348 149 -329T129 -283V-195Q129 -169 148 -150T195 -131H238Q247 -131 267 -131T295 -131T318 -131T341 -129T360
-124T379 -117T394 -106T408 -90T420 -70T432 -43Q442 -19 469 72L188 1001Q178 1035 197 1060T250 1085H340Q360 1085 378 1072T403 1040L580 414L741 1038Q746 1058 765 1071T805 1085H891Q925 1085 943 1061T954 1004Z" />
<glyph unicode="z" glyph-name="z" d="M997 66Q997 38 979 19T932 0H238Q211 0 192 19T172 66V166Q172 189 184 205L672 868H260Q233 868 214 887T195 934V1022Q195 1048 213 1066T260 1085H889Q915 1085 934 1067T954 1022V920Q954 899 942 883L463 217H932Q960
217 978 198T997 152V66Z" />
<glyph unicode="{" glyph-name="braceleft" d="M911 -369Q911 -396 892 -415T846 -434H803Q649 -434 541 -326T432 -66V283Q432 346 388 390T281 434Q255 434 235 454T215 500V586Q215 613 234 632T281 651Q344 651 388 695T432 803V1151Q432 1305 540 1412T803
1520H846Q872 1520 891 1501T911 1456V1368Q911 1342 892 1323T846 1303H803Q740 1303 695 1259T649 1151V803Q649 652 543 543Q649 435 649 283V-66Q649 -129 694 -173T803 -217H846Q872 -217 891 -237T911 -283V-369Z" />
<glyph unicode="|" glyph-name="bar" d="M672 -369Q672 -397 653 -415T606 -434H520Q492 -434 474 -416T455 -369V1456Q455 1482 473 1501T520 1520H606Q634 1520 653 1501T672 1456V-369Z" />
<glyph unicode="}" glyph-name="braceright" d="M911 500Q911 474 892 454T846 434Q783 434 739 390T694 283V-66Q694 -218 586 -326T324 -434H281Q254 -434 235 -415T215 -369V-283Q215 -257 235 -237T281 -217H324Q387 -217 432 -173T477 -66V283Q477 436 584
543Q477 652 477 803V1151Q477 1214 432 1258T324 1303H281Q255 1303 235 1322T215 1368V1468Q252 1520 281 1520H324Q477 1520 585 1412T694 1151V803Q694 740 738 696T846 651Q873 651 892 632T911 586V500Z" />
<glyph unicode="~" glyph-name="asciitilde" d="M997 608Q997 551 967 499T885 415T769 373T629 391T485 487Q461 511 440 524T404 539T378 538T359 523T350 500L346 477Q341 450 324 432T281 414H195Q167 414 148 432T129 477V522Q129 579 159 631T241 715T357
757T497 738T641 641Q670 612 695 599T736 589T763 603T776 631L780 651Q785 679 803 698T846 717H932Q960 717 978 698T997 651V608Z" />
</font>
</defs>
</svg>
